<svg width="192" height="28" viewBox="0 0 192 28" fill="none" xmlns="http://www.w3.org/2000/svg">
<path d="M43.9707 27.4718C45.3311 25.0771 46.8654 20.0207 44.7272 14.4817C42.3877 8.4147 36.7785 4.8485 28.9304 4.4478C27.6524 4.3811 26.4445 4.3507 25.1299 4.3507C24.0044 4.3507 22.9368 4.372 21.8083 4.3962C20.5547 4.4236 19.2553 4.4478 17.7394 4.4478C15.9428 4.4478 14.1219 4.4084 12.1759 4.3264C6.43551 4.0867 2.70821 1.8923 0.588306 0.0864999C0.310706 -0.1503 -0.100993 0.138101 0.0240068 0.481001C0.0789068 0.629701 0.124707 0.751199 0.149107 0.820999C1.43011 4.1201 3.33341 6.9153 5.68821 8.9428C8.59801 11.4497 12.0722 12.7184 16.013 12.7184C19.3925 12.7184 24.5229 12.3268 26.9905 12.1387L27.6493 12.0871C28.1038 12.0537 28.5583 12.0355 29.0006 12.0355C33.1976 12.0355 36.7663 13.553 39.3193 16.4272C41.7502 19.1618 43.0862 23.0163 43.0862 27.2866C43.0862 27.3868 43.0832 27.5021 43.0771 27.6296C43.0618 27.9877 43.5285 28.1395 43.7267 27.842C43.8426 27.6781 43.9311 27.5416 43.9707 27.4718Z" fill="#496374"/>
<path d="M32.2396 22.0058C31.4374 21.9208 30.7816 21.8814 30.1685 21.8814C29.0125 21.8814 28.0365 22.0271 26.5572 22.2456C25.6787 22.3761 24.5837 22.5369 23.1623 22.7099C22.2473 22.8222 21.3475 22.8769 20.4873 22.8769C18.1845 22.8769 16.4306 22.4793 15.1709 22.0604C15.0702 22.0271 14.9665 21.9906 14.8567 21.9512C14.4938 21.8176 14.207 22.2759 14.4846 22.54C17.8886 25.8087 21.1523 27.1168 25.6452 27.1168C27.0818 27.1168 28.677 26.9803 30.5254 26.701C31.7485 26.5159 32.8923 26.4218 33.9233 26.4218C36.4885 26.4218 38.0929 26.9954 39.1726 27.6328C39.2153 27.6571 39.2611 27.6874 39.3068 27.7147C39.6332 27.9242 40.0206 27.5417 39.7979 27.2231C39.2519 26.4309 38.5778 25.5872 37.7726 24.8041C36.0737 23.1591 34.2131 22.2152 32.2396 22.0058Z" fill="#496374"/>
<path d="M31.8034 19.5505C36.1377 19.9511 38.6937 22.279 40.0846 24.0241C40.3286 24.3307 40.8167 24.0696 40.7008 23.6963C39.5722 20.0725 36.2567 14.491 28.8173 14.491C28.5611 14.491 28.2988 14.4971 28.0365 14.5123C27.2922 14.5487 26.1271 14.6579 24.7759 14.7854C22.1405 15.0343 18.8646 15.3408 16.4032 15.3408C16.2964 15.3408 16.1927 15.3408 16.089 15.3378C13.0358 15.3014 10.2662 14.6094 7.8261 13.2709C7.759 13.2345 7.7834 13.2466 7.7163 13.2102C7.3869 13.0251 7.0148 13.3923 7.2222 13.714C7.2222 13.714 7.274 13.7839 7.3442 13.884C9.1163 16.4274 12.6454 19.4564 16.4123 20.0755C17.7361 20.294 19.008 20.4003 20.2982 20.4003C22.2564 20.4003 23.9462 20.1544 25.5811 19.9177C27.1367 19.6901 28.6069 19.4776 30.2265 19.4776C30.7633 19.4806 31.2788 19.5019 31.8034 19.5505Z" fill="#496374"/>
<path d="M84.8915 21.593C84.1442 22.8374 82.8357 23.666 81.3411 23.666C79.1846 23.666 77.4979 21.9694 77.3423 19.7295H88.6035C88.6157 19.5565 88.6249 19.3835 88.6249 19.2075C88.6249 15.2043 85.3643 11.9598 81.3411 11.9598C77.3179 11.9598 74.0573 15.2043 74.0573 19.2075C74.0573 23.2107 77.3179 26.4552 81.3411 26.4552C84.5224 26.4552 87.2249 24.4247 88.2192 21.5961H84.8915V21.593ZM81.3381 14.746C83.0401 14.746 84.3791 15.8173 85.0409 17.3591H77.6138C78.2787 15.8173 79.6361 14.746 81.3381 14.746ZM55.6954 8.4422V14.2634H63.2018V17.4198H55.6954V26.3611H52.2426V5.3221H64.3639V8.4422H55.6954ZM73.7462 12.1571V15.2771C73.3954 15.2073 73.005 15.1375 72.5475 15.1375C70.1165 15.1375 68.2834 16.7855 68.2834 19.2409V26.3581H64.9373V12.3331H68.2834V14.2604C69.2716 12.8915 70.7845 12.0508 72.6176 12.0508C73.0081 12.0539 73.3954 12.0873 73.7462 12.1571ZM118.062 20.291C118.062 18.643 116.686 17.347 114.997 17.347H109.817V23.1682H114.997C116.686 23.1682 118.062 21.939 118.062 20.291ZM114.326 8.512H109.814V14.3332H114.326C115.982 14.3332 117.354 13.0372 117.354 11.3892C117.357 9.7047 115.982 8.512 114.326 8.512ZM121.515 20.7129C121.515 24.185 118.837 26.3581 115.491 26.3581H106.401V5.3221H114.716C118.099 5.3221 120.813 7.565 120.813 11.0371C120.813 13.28 119.721 14.8583 117.995 15.702C120.069 16.4699 121.515 18.1543 121.515 20.7129ZM132.029 12.1571V15.2771C131.678 15.2073 131.288 15.1375 130.83 15.1375C128.399 15.1375 126.566 16.7855 126.566 19.2409V26.3581H123.22V12.3331H126.566V14.2604C127.554 12.8915 129.067 12.0508 130.9 12.0508C131.288 12.0539 131.675 12.0873 132.029 12.1571ZM144.083 19.3441C144.083 16.9949 142.18 15.1375 139.855 15.1375C137.495 15.1375 135.628 16.9949 135.628 19.3441C135.628 21.6932 137.495 23.5506 139.855 23.5506C142.18 23.5537 144.083 21.6932 144.083 19.3441ZM149.402 26.355C149.402 26.355 148.698 26.355 148.274 26.355C146.547 26.355 145.172 25.6873 144.467 24.2851C143.269 25.7237 141.472 26.6343 139.428 26.6343C135.448 26.6343 132.276 23.408 132.276 19.341C132.276 15.2741 135.448 12.0478 139.428 12.0478C141.225 12.0478 142.774 12.7125 143.973 13.799V12.327H147.319V22.1909C147.319 23.4171 148.262 23.3594 148.951 23.3594H149.402V26.355ZM163.281 17.4532V26.3581H159.968V17.8023C159.968 16.2938 158.806 15.1375 157.257 15.1375C155.707 15.1375 154.508 16.2938 154.508 17.8023V26.3581H151.162V12.3331H154.508V13.6655C155.46 12.6487 156.729 12.0539 158.138 12.0539C160.883 12.0539 163.281 14.403 163.281 17.4532ZM176.814 19.3471C176.814 16.998 174.911 15.1405 172.587 15.1405C170.226 15.1405 168.359 16.998 168.359 19.3471C168.359 21.6962 170.226 23.5537 172.587 23.5537C174.914 23.5537 176.814 21.6932 176.814 19.3471ZM180.057 5.3221V26.3581H176.711V24.8861C175.512 25.9726 173.962 26.6403 172.166 26.6403C168.185 26.6403 165.013 23.4141 165.013 19.3471C165.013 15.2801 168.185 12.0539 172.166 12.0539C173.962 12.0539 175.512 12.7216 176.711 13.8081V5.3221H180.057ZM181.789 23.411L184.501 22.1849C184.925 23.2714 186.05 23.7631 187.072 23.7631C188.057 23.7631 188.835 23.2714 188.835 22.3943C188.835 21.587 188.164 21.2015 186.685 20.6066C184.571 19.8357 182.491 18.7826 182.491 16.2938C182.491 13.8385 184.464 12.0508 187.105 12.0508C189.009 12.0508 190.805 12.9978 191.543 14.1905L189.43 15.9084C189.042 15.2771 188.231 14.8583 187.316 14.8583C186.364 14.8583 185.8 15.3135 185.8 16.1208C185.8 16.998 186.468 17.2772 187.844 17.8387C189.747 18.6096 192.001 19.6627 192.001 22.3275C192.001 24.8527 189.991 26.6403 187.173 26.6403C184.818 26.6373 182.457 25.3413 181.789 23.411ZM104.599 19.7265C104.611 19.5535 104.62 19.3805 104.62 19.2045C104.62 15.2012 101.359 11.9567 97.336 11.9567C93.313 11.9567 90.052 15.2012 90.052 19.2045C90.052 23.2077 93.313 26.4522 97.336 26.4522C100.517 26.4522 103.22 24.4217 104.211 21.593H100.887C100.139 22.8374 98.831 23.666 97.336 23.666C95.18 23.666 93.493 21.9694 93.337 19.7295H104.599V19.7265ZM93.615 17.3591C94.277 15.8173 95.637 14.746 97.339 14.746C99.041 14.746 100.38 15.8173 101.042 17.3591H93.615Z" fill="#496374"/>
</svg>
